<mxfile host="Electron" modified="2023-04-08T10:44:39.092Z" agent="Mozilla/5.0 (Windows NT 10.0; Win64; x64) AppleWebKit/537.36 (KHTML, like Gecko) draw.io/21.1.2 Chrome/106.0.5249.199 Electron/21.4.3 Safari/537.36" etag="cBGrVyTZVTO9CbP7Xp5c" version="21.1.2" type="device">
  <diagram name="Страница 1" id="yqUR3yUKqxzKo3WXEfRE">
    <mxGraphModel dx="1389" dy="844" grid="1" gridSize="10" guides="1" tooltips="1" connect="1" arrows="1" fold="1" page="1" pageScale="1" pageWidth="827" pageHeight="1169" math="0" shadow="0">
      <root>
        <mxCell id="0" />
        <mxCell id="1" parent="0" />
        <mxCell id="37ya3wcQlnLXViUBCo09-17" value="" style="edgeStyle=orthogonalEdgeStyle;rounded=0;orthogonalLoop=1;jettySize=auto;html=1;" edge="1" parent="1" source="37ya3wcQlnLXViUBCo09-1" target="37ya3wcQlnLXViUBCo09-6">
          <mxGeometry relative="1" as="geometry" />
        </mxCell>
        <mxCell id="37ya3wcQlnLXViUBCo09-1" value="SecondArrayWithlf" style="rounded=1;whiteSpace=wrap;html=1;" vertex="1" parent="1">
          <mxGeometry x="290" y="610" width="120" height="60" as="geometry" />
        </mxCell>
        <mxCell id="37ya3wcQlnLXViUBCo09-16" value="" style="edgeStyle=orthogonalEdgeStyle;rounded=0;orthogonalLoop=1;jettySize=auto;html=1;" edge="1" parent="1" source="37ya3wcQlnLXViUBCo09-2" target="37ya3wcQlnLXViUBCo09-1">
          <mxGeometry relative="1" as="geometry" />
        </mxCell>
        <mxCell id="37ya3wcQlnLXViUBCo09-2" value="string[] array1&lt;br&gt;sring array2&lt;br&gt;int count=0" style="shape=parallelogram;perimeter=parallelogramPerimeter;whiteSpace=wrap;html=1;fixedSize=1;" vertex="1" parent="1">
          <mxGeometry x="290" y="524.5" width="120" height="60" as="geometry" />
        </mxCell>
        <mxCell id="37ya3wcQlnLXViUBCo09-9" value="" style="edgeStyle=orthogonalEdgeStyle;rounded=0;orthogonalLoop=1;jettySize=auto;html=1;" edge="1" parent="1" source="37ya3wcQlnLXViUBCo09-4" target="37ya3wcQlnLXViUBCo09-8">
          <mxGeometry relative="1" as="geometry" />
        </mxCell>
        <mxCell id="37ya3wcQlnLXViUBCo09-18" value="" style="edgeStyle=orthogonalEdgeStyle;rounded=0;orthogonalLoop=1;jettySize=auto;html=1;" edge="1" parent="1" source="37ya3wcQlnLXViUBCo09-4" target="37ya3wcQlnLXViUBCo09-12">
          <mxGeometry relative="1" as="geometry" />
        </mxCell>
        <mxCell id="37ya3wcQlnLXViUBCo09-4" value="if (array1[i].lenght &amp;lt;=3" style="rhombus;whiteSpace=wrap;html=1;" vertex="1" parent="1">
          <mxGeometry x="275" y="840" width="150" height="100" as="geometry" />
        </mxCell>
        <mxCell id="37ya3wcQlnLXViUBCo09-7" value="" style="edgeStyle=orthogonalEdgeStyle;rounded=0;orthogonalLoop=1;jettySize=auto;html=1;" edge="1" parent="1" source="37ya3wcQlnLXViUBCo09-6" target="37ya3wcQlnLXViUBCo09-4">
          <mxGeometry relative="1" as="geometry" />
        </mxCell>
        <mxCell id="37ya3wcQlnLXViUBCo09-6" value="for (int i =0;&lt;br&gt;i &amp;lt;array1.length;&lt;br&gt;i++)" style="shape=hexagon;perimeter=hexagonPerimeter2;whiteSpace=wrap;html=1;fixedSize=1;" vertex="1" parent="1">
          <mxGeometry x="290" y="710" width="120" height="80" as="geometry" />
        </mxCell>
        <mxCell id="37ya3wcQlnLXViUBCo09-10" value="" style="edgeStyle=orthogonalEdgeStyle;rounded=0;orthogonalLoop=1;jettySize=auto;html=1;" edge="1" parent="1" source="37ya3wcQlnLXViUBCo09-8" target="37ya3wcQlnLXViUBCo09-6">
          <mxGeometry relative="1" as="geometry" />
        </mxCell>
        <mxCell id="37ya3wcQlnLXViUBCo09-8" value="array2[count] = array1[i];&lt;br&gt;count++" style="rounded=0;whiteSpace=wrap;html=1;" vertex="1" parent="1">
          <mxGeometry x="10" y="720" width="180" height="60" as="geometry" />
        </mxCell>
        <mxCell id="37ya3wcQlnLXViUBCo09-11" value="да" style="text;html=1;strokeColor=none;fillColor=none;align=center;verticalAlign=middle;whiteSpace=wrap;rounded=0;" vertex="1" parent="1">
          <mxGeometry x="210" y="860" width="60" height="30" as="geometry" />
        </mxCell>
        <mxCell id="37ya3wcQlnLXViUBCo09-20" value="" style="edgeStyle=orthogonalEdgeStyle;rounded=0;orthogonalLoop=1;jettySize=auto;html=1;" edge="1" parent="1" source="37ya3wcQlnLXViUBCo09-12" target="37ya3wcQlnLXViUBCo09-19">
          <mxGeometry relative="1" as="geometry" />
        </mxCell>
        <mxCell id="37ya3wcQlnLXViUBCo09-12" value="print array2" style="shape=parallelogram;perimeter=parallelogramPerimeter;whiteSpace=wrap;html=1;fixedSize=1;" vertex="1" parent="1">
          <mxGeometry x="490" y="860" width="120" height="60" as="geometry" />
        </mxCell>
        <mxCell id="37ya3wcQlnLXViUBCo09-15" value="" style="edgeStyle=orthogonalEdgeStyle;rounded=0;orthogonalLoop=1;jettySize=auto;html=1;" edge="1" parent="1" source="37ya3wcQlnLXViUBCo09-13" target="37ya3wcQlnLXViUBCo09-2">
          <mxGeometry relative="1" as="geometry" />
        </mxCell>
        <mxCell id="37ya3wcQlnLXViUBCo09-13" value="Начало" style="rounded=0;whiteSpace=wrap;html=1;" vertex="1" parent="1">
          <mxGeometry x="290" y="440" width="120" height="60" as="geometry" />
        </mxCell>
        <mxCell id="37ya3wcQlnLXViUBCo09-19" value="конец" style="rounded=0;whiteSpace=wrap;html=1;" vertex="1" parent="1">
          <mxGeometry x="490" y="980" width="120" height="60" as="geometry" />
        </mxCell>
        <mxCell id="37ya3wcQlnLXViUBCo09-21" value="нет" style="text;html=1;strokeColor=none;fillColor=none;align=center;verticalAlign=middle;whiteSpace=wrap;rounded=0;" vertex="1" parent="1">
          <mxGeometry x="425" y="860" width="60" height="30" as="geometry" />
        </mxCell>
      </root>
    </mxGraphModel>
  </diagram>
</mxfile>
